<?xml version="1.0" encoding="UTF-8" standalone="no"?>
<!-- Created with Inkscape (http://www.inkscape.org/) -->

<svg
   width="256mm"
   height="256mm"
   viewBox="0 0 256 256"
   version="1.1"
   id="svg1"
   xml:space="preserve"
   sodipodi:docname="prism_logo.svg"
   inkscape:version="1.4.2 (ebf0e940d0, 2025-05-08)"
   xmlns:inkscape="http://www.inkscape.org/namespaces/inkscape"
   xmlns:sodipodi="http://sodipodi.sourceforge.net/DTD/sodipodi-0.dtd"
   xmlns:xlink="http://www.w3.org/1999/xlink"
   xmlns="http://www.w3.org/2000/svg"
   xmlns:svg="http://www.w3.org/2000/svg"><sodipodi:namedview
     id="namedview1"
     pagecolor="#505050"
     bordercolor="#ffffff"
     borderopacity="1"
     inkscape:showpageshadow="0"
     inkscape:pageopacity="0"
     inkscape:pagecheckerboard="1"
     inkscape:deskcolor="#505050"
     inkscape:document-units="mm"
     inkscape:zoom="0.51834041"
     inkscape:cx="289.38512"
     inkscape:cy="468.80389"
     inkscape:window-width="1503"
     inkscape:window-height="933"
     inkscape:window-x="0"
     inkscape:window-y="0"
     inkscape:window-maximized="1"
     inkscape:current-layer="layer1" /><defs
     id="defs1"><linearGradient
       id="linearGradient161"
       inkscape:collect="always"><stop
         style="stop-color:#2d3449;stop-opacity:1;"
         offset="0"
         id="stop161" /><stop
         style="stop-color:#060e1f;stop-opacity:1;"
         offset="1"
         id="stop162" /></linearGradient><linearGradient
       id="linearGradient156"
       inkscape:collect="always"><stop
         style="stop-color:#ffffff;stop-opacity:1;"
         offset="0.39722782"
         id="stop156" /><stop
         style="stop-color:#ffffff;stop-opacity:0;"
         offset="1"
         id="stop157" /></linearGradient><linearGradient
       inkscape:collect="always"
       xlink:href="#linearGradient156"
       id="linearGradient157"
       x1="11.658064"
       y1="142.79869"
       x2="150.86298"
       y2="142.79869"
       gradientUnits="userSpaceOnUse" /><filter
       inkscape:collect="always"
       style="color-interpolation-filters:sRGB"
       id="filter161"
       x="-0.013110078"
       y="-0.012550588"
       width="1.0262202"
       height="1.0251012"><feGaussianBlur
         inkscape:collect="always"
         stdDeviation="0.39881493"
         id="feGaussianBlur161" /></filter><linearGradient
       inkscape:collect="always"
       xlink:href="#linearGradient161"
       id="linearGradient162"
       x1="105.17493"
       y1="50.492737"
       x2="105.17493"
       y2="237.60791"
       gradientUnits="userSpaceOnUse" /></defs><g
     inkscape:label="Layer 1"
     inkscape:groupmode="layer"
     id="layer1"
     transform="matrix(1.3603948,0,0,1.4449021,-15.804173,-80.138614)"><g
       id="g142"><rect
         style="opacity:1;fill:url(#linearGradient162);fill-rule:evenodd;stroke:none;stroke-width:1.48323;stroke-linejoin:round;stroke-miterlimit:18;stroke-opacity:1;paint-order:fill markers stroke"
         id="rect153"
         width="187.11517"
         height="177.17464"
         x="11.617344"
         y="55.463005"
         ry="36.016922" /><path
         style="opacity:1;fill:url(#linearGradient157);fill-rule:evenodd;stroke:none;stroke-width:0.998749;stroke-linejoin:round;stroke-miterlimit:18;stroke-opacity:1;paint-order:fill markers stroke"
         d="m 11.658064,164.26536 v -15.69864 l 65.532862,-17.34907 48.808004,-9.88562 24.86404,42.72753 -74.685948,-26.11127 z"
         id="path154" /><path
         sodipodi:type="star"
         style="opacity:1;fill:#ffffff;fill-opacity:0.143597;fill-rule:evenodd;stroke:#bfbfbf;stroke-width:3.90617;stroke-linecap:round;stroke-linejoin:round;stroke-miterlimit:18;stroke-dasharray:none;stroke-opacity:0.733868;paint-order:fill markers stroke"
         id="path155"
         inkscape:flatsided="true"
         sodipodi:sides="3"
         sodipodi:cx="103.73273"
         sodipodi:cy="141.01686"
         sodipodi:r1="57.851051"
         sodipodi:r2="28.925526"
         sodipodi:arg1="-1.5450141"
         sodipodi:arg2="-0.49781652"
         inkscape:rounded="0"
         inkscape:randomized="0"
         d="M 105.22409,83.185036 153.07087,171.22433 52.903216,168.64121 Z"
         inkscape:transform-center-x="0.066822838"
         inkscape:transform-center-y="-14.466955"
         transform="matrix(1.0440064,-0.02366544,0.02461187,1.00386,-7.0130214,9.5162271)" /><path
         style="opacity:0.523795;fill:#ffffff;fill-opacity:1;fill-rule:evenodd;stroke:none;stroke-width:3.96317;stroke-linecap:round;stroke-linejoin:round;stroke-miterlimit:18;stroke-dasharray:none;stroke-opacity:0.733868;paint-order:stroke fill markers"
         d="m 93.880732,179.63146 -42.650935,-0.13537 -0.93299,-2.43665 52.513973,-87.854787 1.33284,-0.676848 1.46612,0.676848 z"
         id="path157" /></g><g
       inkscape:groupmode="layer"
       id="layer2"
       inkscape:label="rainbow"
       style="filter:url(#filter161)"><path
         style="fill:#5bb23c;stroke-width:1.0151"
         d="m 194.11163,162.73155 c -2.15346,-0.71353 -11.57062,-3.90646 -20.92704,-7.09538 -9.35641,-3.18894 -19.9887,-6.79718 -23.6273,-8.01831 -3.63861,-1.22115 -7.14734,-2.41309 -7.7972,-2.64876 -0.64986,-0.23569 -1.38813,-0.42852 -1.6406,-0.42852 -0.25247,0 -0.70898,-0.27048 -1.01448,-0.60106 -0.6632,-0.71767 -4.23947,-6.59416 -4.0949,-6.72871 0.10363,-0.0964 1.25062,0.15181 11.44188,2.47644 22.50472,5.13335 44.05199,10.01809 47.2546,10.71257 2.07921,0.45088 4.05377,0.88205 4.38793,0.95817 l 0.60756,0.13838 v 6.27268 c 0,4.84348 -0.0769,6.27122 -0.33753,6.26625 -0.18565,-0.004 -2.09946,-0.59023 -4.25292,-1.30375 z"
         id="path144"
         inkscape:label="green" /><path
         style="fill:#f8dd21;stroke-width:1.00869"
         d="m 195.3636,150.90365 c -3.37562,-0.76226 -40.35999,-9.23669 -49.92489,-11.43957 -3.52411,-0.81163 -7.26033,-1.67064 -8.30271,-1.9089 l -1.89523,-0.43322 -1.30851,-2.14929 c -1.94337,-3.19212 -2.14307,-3.5727 -1.68487,-3.21108 0.20701,0.16337 1.5177,0.36883 2.91266,0.45656 2.2939,0.14429 25.69075,2.56682 33.90621,3.51069 3.4638,0.39795 4.19857,0.47778 14.81728,1.60988 3.52411,0.37572 7.9693,0.85834 9.87819,1.0725 1.90889,0.21416 3.79897,0.38952 4.20016,0.3897 l 0.72944,3.2e-4 0.0778,-6.46964 c 0.0428,-3.5583 0.075,-0.71697 0.0715,6.31406 -0.004,8.29348 -0.1001,12.80783 -0.27326,12.85242 -0.14684,0.0378 -1.58852,-0.22969 -3.20374,-0.59443 z"
         id="path152"
         inkscape:label="yellow" /><path
         style="fill:#ed332f;fill-opacity:1;stroke-width:1.00713"
         d="m 128.88812,126.39304 c -0.59603,-0.50462 -3.22693,-4.80603 -3.04765,-4.98278 0.14159,-0.13959 2.4325,-0.45586 15.69978,-2.16741 4.50188,-0.58077 11.80822,-1.52787 16.2363,-2.10468 7.34843,-0.95721 40.35845,-5.03263 40.76324,-5.03263 0.0947,0 0.13992,3.00633 0.10052,6.68073 l -0.0717,6.68073 -9.79545,0.16783 c -5.3875,0.0923 -18.73214,0.31273 -29.65474,0.48982 -10.9226,0.1771 -22.08727,0.39923 -24.81038,0.49363 -4.18986,0.14524 -5.02319,0.11061 -5.41989,-0.22524 z"
         id="path145"
         inkscape:label="red" /><path
         style="fill:#fb9614;stroke-width:1.0199"
         d="m 193.33788,138.48153 c -1.69642,-0.20157 -5.98107,-0.67949 -9.52143,-1.06205 -10.3721,-1.12076 -11.36393,-1.23002 -14.88562,-1.63988 -7.35034,-0.85545 -31.6759,-3.41976 -34.17195,-3.60229 l -2.65733,-0.19431 -1.68478,-2.78714 c -0.92663,-1.53293 -1.51993,-2.6936 -1.31843,-2.57925 0.20148,0.11434 2.57787,0.12876 5.28084,0.032 2.70298,-0.0967 13.78554,-0.32314 24.6279,-0.50318 10.84237,-0.18002 24.20936,-0.40634 29.70443,-0.50291 l 9.99105,-0.17557 -2.4e-4,6.71962 -2.5e-4,6.71963 -1.13989,-0.0291 c -0.62693,-0.016 -2.52787,-0.19405 -4.2243,-0.39561 z"
         id="path150"
         inkscape:label="orange" /><path
         style="fill:#953fcd;stroke-width:1.03884"
         d="m 196.91728,187.60205 c -0.75512,-0.414 -2.79392,-1.50269 -4.53068,-2.41931 -6.61954,-3.49365 -23.02351,-12.19469 -31.88521,-16.91267 -5.07755,-2.7033 -9.50847,-5.01759 -9.84648,-5.14288 -0.87669,-0.32496 -6.7939,-10.33664 -6.18476,-10.46436 0.23858,-0.05 4.84653,1.91525 10.23991,4.36727 20.08493,9.13133 17.39569,7.9128 32.73401,14.83218 1.73676,0.78348 4.98029,2.23525 7.20787,3.22617 l 4.05014,1.80166 v 5.74689 c 0,3.16079 -0.0926,5.74034 -0.20595,5.73234 -0.11325,-0.008 -0.82375,-0.35328 -1.57885,-0.76729 z"
         id="path149"
         inkscape:label="purple" /><path
         style="fill:#2283e1;stroke-width:1.02769"
         d="m 193.53252,174.92013 c -2.46972,-1.12199 -6.75601,-3.05464 -9.52508,-4.29479 -2.76909,-1.24014 -7.79017,-3.50093 -11.15796,-5.02398 -3.36781,-1.52304 -8.57257,-3.87 -11.56617,-5.21545 -12.41462,-5.57968 -16.88998,-7.64512 -17.18887,-7.93292 -0.60009,-0.57784 -5.0279,-8.1005 -4.86412,-8.26398 0.0903,-0.0901 2.21129,0.52678 4.71322,1.37105 6.0843,2.05316 20.75182,7.06163 31.62739,10.7997 4.86459,1.67202 12.02883,4.11064 15.9205,5.41913 l 7.07577,2.3791 0.073,6.42443 c 0.0574,5.05521 -5.8e-4,6.41946 -0.27214,6.40107 -0.18982,-0.0128 -2.36578,-0.94137 -4.8355,-2.06336 z"
         id="path147"
         inkscape:label="blue" /></g></g></svg>
